<svg xmlns="http://www.w3.org/2000/svg" viewBox="0 0 1600 1000" preserveAspectRatio="xMidYMid slice">
    <defs><linearGradient id="sky" x1="0" y1="0" x2="0" y2="1"><stop offset="0%" stop-color="#1a6c89"/><stop offset="50%" stop-color="#ff9854"/><stop offset="100%" stop-color="#0b0d13"/></linearGradient></defs>
    <rect width="1600" height="1000" fill="url(#sky)"/><circle cx="1180" cy="185" r="116" fill="#ffd395" opacity=".24"/><rect x="0" y="560" width="1600" height="160" fill="#2f7fa3" opacity=".55"/><path d="M 0 590 Q 40 568 80 590 Q 120 612 160 590 Q 200 568 240 590 Q 280 612 320 590 Q 360 568 400 590 Q 440 612 480 590 Q 520 568 560 590 Q 600 612 640 590 Q 680 568 720 590 Q 760 612 800 590 Q 840 568 880 590 Q 920 612 960 590 Q 1000 568 1040 590 Q 1080 612 1120 590 Q 1160 568 1200 590 Q 1240 612 1280 590 Q 1320 568 1360 590 Q 1400 612 1440 590 Q 1480 568 1520 590 Q 1560 612 1600 590 " fill="none" stroke="#e3fbff" stroke-width="3" opacity="0.25"/><path d="M 0 620 Q 40 598 80 620 Q 120 642 160 620 Q 200 598 240 620 Q 280 642 320 620 Q 360 598 400 620 Q 440 642 480 620 Q 520 598 560 620 Q 600 642 640 620 Q 680 598 720 620 Q 760 642 800 620 Q 840 598 880 620 Q 920 642 960 620 Q 1000 598 1040 620 Q 1080 642 1120 620 Q 1160 598 1200 620 Q 1240 642 1280 620 Q 1320 598 1360 620 Q 1400 642 1440 620 Q 1480 598 1520 620 Q 1560 642 1600 620 " fill="none" stroke="#e3fbff" stroke-width="3" opacity="0.25"/><path d="M 0 650 Q 40 628 80 650 Q 120 672 160 650 Q 200 628 240 650 Q 280 672 320 650 Q 360 628 400 650 Q 440 672 480 650 Q 520 628 560 650 Q 600 672 640 650 Q 680 628 720 650 Q 760 672 800 650 Q 840 628 880 650 Q 920 672 960 650 Q 1000 628 1040 650 Q 1080 672 1120 650 Q 1160 628 1200 650 Q 1240 672 1280 650 Q 1320 628 1360 650 Q 1400 672 1440 650 Q 1480 628 1520 650 Q 1560 672 1600 650 " fill="none" stroke="#e3fbff" stroke-width="3" opacity="0.25"/><path d="M 0 680 Q 40 658 80 680 Q 120 702 160 680 Q 200 658 240 680 Q 280 702 320 680 Q 360 658 400 680 Q 440 702 480 680 Q 520 658 560 680 Q 600 702 640 680 Q 680 658 720 680 Q 760 702 800 680 Q 840 658 880 680 Q 920 702 960 680 Q 1000 658 1040 680 Q 1080 702 1120 680 Q 1160 658 1200 680 Q 1240 702 1280 680 Q 1320 658 1360 680 Q 1400 702 1440 680 Q 1480 658 1520 680 Q 1560 702 1600 680 " fill="none" stroke="#e3fbff" stroke-width="3" opacity="0.25"/><path d="M 0 710 Q 40 688 80 710 Q 120 732 160 710 Q 200 688 240 710 Q 280 732 320 710 Q 360 688 400 710 Q 440 732 480 710 Q 520 688 560 710 Q 600 732 640 710 Q 680 688 720 710 Q 760 732 800 710 Q 840 688 880 710 Q 920 732 960 710 Q 1000 688 1040 710 Q 1080 732 1120 710 Q 1160 688 1200 710 Q 1240 732 1280 710 Q 1320 688 1360 710 Q 1400 732 1440 710 Q 1480 688 1520 710 Q 1560 732 1600 710 " fill="none" stroke="#e3fbff" stroke-width="3" opacity="0.25"/><path d="M 0 650 Q 40 634 80 650 Q 120 666 160 650 Q 200 634 240 650 Q 280 666 320 650 Q 360 634 400 650 Q 440 666 480 650 Q 520 634 560 650 Q 600 666 640 650 Q 680 634 720 650 Q 760 666 800 650 Q 840 634 880 650 Q 920 666 960 650 Q 1000 634 1040 650 Q 1080 666 1120 650 Q 1160 634 1200 650 Q 1240 666 1280 650 Q 1320 634 1360 650 Q 1400 666 1440 650 Q 1480 634 1520 650 Q 1560 666 1600 650 " fill="none" stroke="#d1f7ff" stroke-width="3" opacity="0.2"/><path d="M 0 676 Q 40 660 80 676 Q 120 692 160 676 Q 200 660 240 676 Q 280 692 320 676 Q 360 660 400 676 Q 440 692 480 676 Q 520 660 560 676 Q 600 692 640 676 Q 680 660 720 676 Q 760 692 800 676 Q 840 660 880 676 Q 920 692 960 676 Q 1000 660 1040 676 Q 1080 692 1120 676 Q 1160 660 1200 676 Q 1240 692 1280 676 Q 1320 660 1360 676 Q 1400 692 1440 676 Q 1480 660 1520 676 Q 1560 692 1600 676 " fill="none" stroke="#d1f7ff" stroke-width="3" opacity="0.2"/><path d="M 0 702 Q 40 686 80 702 Q 120 718 160 702 Q 200 686 240 702 Q 280 718 320 702 Q 360 686 400 702 Q 440 718 480 702 Q 520 686 560 702 Q 600 718 640 702 Q 680 686 720 702 Q 760 718 800 702 Q 840 686 880 702 Q 920 718 960 702 Q 1000 686 1040 702 Q 1080 718 1120 702 Q 1160 686 1200 702 Q 1240 718 1280 702 Q 1320 686 1360 702 Q 1400 718 1440 702 Q 1480 686 1520 702 Q 1560 718 1600 702 " fill="none" stroke="#d1f7ff" stroke-width="3" opacity="0.2"/><path d="M 0 728 Q 40 712 80 728 Q 120 744 160 728 Q 200 712 240 728 Q 280 744 320 728 Q 360 712 400 728 Q 440 744 480 728 Q 520 712 560 728 Q 600 744 640 728 Q 680 712 720 728 Q 760 744 800 728 Q 840 712 880 728 Q 920 744 960 728 Q 1000 712 1040 728 Q 1080 744 1120 728 Q 1160 712 1200 728 Q 1240 744 1280 728 Q 1320 712 1360 728 Q 1400 744 1440 728 Q 1480 712 1520 728 Q 1560 744 1600 728 " fill="none" stroke="#d1f7ff" stroke-width="3" opacity="0.2"/><path d="M 0 754 Q 40 738 80 754 Q 120 770 160 754 Q 200 738 240 754 Q 280 770 320 754 Q 360 738 400 754 Q 440 770 480 754 Q 520 738 560 754 Q 600 770 640 754 Q 680 738 720 754 Q 760 770 800 754 Q 840 738 880 754 Q 920 770 960 754 Q 1000 738 1040 754 Q 1080 770 1120 754 Q 1160 738 1200 754 Q 1240 770 1280 754 Q 1320 738 1360 754 Q 1400 770 1440 754 Q 1480 738 1520 754 Q 1560 770 1600 754 " fill="none" stroke="#d1f7ff" stroke-width="3" opacity="0.2"/><rect x="0" y="720" width="1600" height="280" fill="#4b3224" opacity=".25"/><rect x="0" y="760" width="1600" height="240" fill="#d7b07b" opacity=".55"/><path d="M 260 810 C 250.7 725.9, 276.8 641.7, 263.7 566.9" stroke="#4d2d18" stroke-width="15.0" fill="none" stroke-linecap="round" opacity=".92"/><path d="M 263.7 566.9 Q 281.3 514.9 298.9 496.6 Q 284.8 559.4 263.7 566.9 Z" fill="#184d38" opacity=".92"/><path d="M 263.7 566.9 Q 305.9 528.6 348.0 524.0 Q 301.9 571.9 263.7 566.9 Z" fill="#184d38" opacity=".92"/><path d="M 263.7 566.9 Q 315.2 550.1 366.6 566.9 Q 305.2 588.6 263.7 566.9 Z" fill="#184d38" opacity=".92"/><path d="M 263.7 566.9 Q 305.9 571.5 348.0 609.8 Q 293.5 603.6 263.7 566.9 Z" fill="#184d38" opacity=".92"/><path d="M 263.7 566.9 Q 281.3 585.2 298.9 637.2 Q 271.0 611.4 263.7 566.9 Z" fill="#184d38" opacity=".92"/><path d="M 1320 810 C 1309.0 711.0, 1339.8 612.0, 1324.4 524.0" stroke="#4d2d18" stroke-width="17.6" fill="none" stroke-linecap="round" opacity=".92"/><path d="M 1324.4 524.0 Q 1345.1 462.9 1365.8 441.3 Q 1349.2 515.2 1324.4 524.0 Z" fill="#184d38" opacity=".92"/><path d="M 1324.4 524.0 Q 1374.0 479.0 1423.5 473.5 Q 1369.3 529.9 1324.4 524.0 Z" fill="#184d38" opacity=".92"/><path d="M 1324.4 524.0 Q 1384.9 504.2 1445.4 524.0 Q 1373.1 549.5 1324.4 524.0 Z" fill="#184d38" opacity=".92"/><path d="M 1324.4 524.0 Q 1374.0 529.4 1423.5 574.5 Q 1359.4 567.1 1324.4 524.0 Z" fill="#184d38" opacity=".92"/><path d="M 1324.4 524.0 Q 1345.1 545.5 1365.8 606.7 Q 1333.0 576.3 1324.4 524.0 Z" fill="#184d38" opacity=".92"/>
    </svg>