<svg xmlns="http://www.w3.org/2000/svg" viewBox="0 0 1600 1000" preserveAspectRatio="xMidYMid slice">
    <defs><linearGradient id="sky" x1="0" y1="0" x2="0" y2="1"><stop offset="0%" stop-color="#0f1d39"/><stop offset="58%" stop-color="#20325f"/><stop offset="100%" stop-color="#08090e"/></linearGradient></defs>
    <rect width="1600" height="1000" fill="url(#sky)"/><circle cx="-90.4" cy="103.0" r="74.1" fill="#c4dbff" opacity="0.08"/><circle cx="-22.0" cy="85.9" r="96.9" fill="#c4dbff" opacity="0.08"/><circle cx="52.1" cy="108.7" r="68.4" fill="#c4dbff" opacity="0.08"/><circle cx="-10.6" cy="128.6" r="99.7" fill="#c4dbff" opacity="0.08"/><circle cx="138.8" cy="148.0" r="59.8" fill="#c4dbff" opacity="0.08"/><circle cx="194.0" cy="134.2" r="78.2" fill="#c4dbff" opacity="0.08"/><circle cx="253.8" cy="152.6" r="55.2" fill="#c4dbff" opacity="0.08"/><circle cx="203.2" cy="168.7" r="80.5" fill="#c4dbff" opacity="0.08"/><circle cx="1271.4" cy="54.0" r="63.5" fill="#c4dbff" opacity="0.08"/><circle cx="1330.0" cy="39.4" r="83.0" fill="#c4dbff" opacity="0.08"/><circle cx="1393.5" cy="58.9" r="58.6" fill="#c4dbff" opacity="0.08"/><circle cx="1339.8" cy="76.0" r="85.4" fill="#c4dbff" opacity="0.08"/><circle cx="878.9" cy="185.0" r="44.5" fill="#c4dbff" opacity="0.08"/><circle cx="920.0" cy="174.7" r="58.2" fill="#c4dbff" opacity="0.08"/><circle cx="964.5" cy="188.4" r="41.1" fill="#c4dbff" opacity="0.08"/><circle cx="926.8" cy="200.4" r="59.9" fill="#c4dbff" opacity="0.08"/><circle cx="729.7" cy="177.0" r="59.9" fill="#c4dbff" opacity="0.08"/><circle cx="785.0" cy="163.2" r="78.4" fill="#c4dbff" opacity="0.08"/><circle cx="844.9" cy="181.6" r="55.3" fill="#c4dbff" opacity="0.08"/><circle cx="794.2" cy="197.8" r="80.7" fill="#c4dbff" opacity="0.08"/><circle cx="963.8" cy="141.0" r="60.9" fill="#c4dbff" opacity="0.08"/><circle cx="1020.0" cy="126.9" r="79.6" fill="#c4dbff" opacity="0.08"/><circle cx="1080.9" cy="145.7" r="56.2" fill="#c4dbff" opacity="0.08"/><circle cx="1029.4" cy="162.1" r="82.0" fill="#c4dbff" opacity="0.08"/><circle cx="-55.4" cy="57.0" r="79.5" fill="#c4dbff" opacity="0.08"/><circle cx="18.0" cy="38.7" r="104.0" fill="#c4dbff" opacity="0.08"/><circle cx="97.5" cy="63.1" r="73.4" fill="#c4dbff" opacity="0.08"/><circle cx="30.2" cy="84.5" r="107.0" fill="#c4dbff" opacity="0.08"/><circle cx="624.8" cy="69.0" r="47.9" fill="#c4dbff" opacity="0.08"/><circle cx="669.0" cy="58.0" r="62.6" fill="#c4dbff" opacity="0.08"/><circle cx="716.9" cy="72.7" r="44.2" fill="#c4dbff" opacity="0.08"/><circle cx="676.4" cy="85.6" r="64.4" fill="#c4dbff" opacity="0.08"/><circle cx="903.5" cy="156.0" r="49.3" fill="#c4dbff" opacity="0.08"/><circle cx="949.0" cy="144.6" r="64.5" fill="#c4dbff" opacity="0.08"/><circle cx="998.3" cy="159.8" r="45.5" fill="#c4dbff" opacity="0.08"/><circle cx="956.6" cy="173.1" r="66.4" fill="#c4dbff" opacity="0.08"/><circle cx="612.2" cy="182.0" r="86.4" fill="#c4dbff" opacity="0.08"/><circle cx="692.0" cy="162.1" r="113.0" fill="#c4dbff" opacity="0.08"/><circle cx="778.4" cy="188.6" r="79.8" fill="#c4dbff" opacity="0.08"/><circle cx="705.3" cy="211.9" r="116.3" fill="#c4dbff" opacity="0.08"/><circle cx="408.3" cy="177.0" r="51.6" fill="#c4dbff" opacity="0.08"/><circle cx="456.0" cy="165.1" r="67.5" fill="#c4dbff" opacity="0.08"/><circle cx="507.6" cy="181.0" r="47.7" fill="#c4dbff" opacity="0.08"/><circle cx="463.9" cy="194.9" r="69.5" fill="#c4dbff" opacity="0.08"/><circle cx="-33.7" cy="42.0" r="69.0" fill="#c4dbff" opacity="0.08"/><circle cx="30.0" cy="26.1" r="90.2" fill="#c4dbff" opacity="0.08"/><circle cx="99.0" cy="47.3" r="63.7" fill="#c4dbff" opacity="0.08"/><circle cx="40.6" cy="65.9" r="92.9" fill="#c4dbff" opacity="0.08"/><polyline points="932,0 970,61 937,160 958,280 903,372 847,471 859,585" fill="none" stroke="#f5ee0d" stroke-width="5" opacity="0.35" stroke-linecap="round" stroke-linejoin="round"/><polyline points="356,0 371,75 384,222 417,307 422,446 402,529 412,634" fill="none" stroke="#f5ee0d" stroke-width="5" opacity="0.35" stroke-linecap="round" stroke-linejoin="round"/><polyline points="1212,0 1212,127 1165,268 1191,340 1207,474 1192,587 1177,671" fill="none" stroke="#f5ee0d" stroke-width="5" opacity="0.35" stroke-linecap="round" stroke-linejoin="round"/><polyline points="489,0 508,118 457,187 448,319 396,444 417,520 450,585" fill="none" stroke="#f5ee0d" stroke-width="5" opacity="0.35" stroke-linecap="round" stroke-linejoin="round"/><polyline points="1270,0 1232,69 1276,203 1244,317 1294,448 1291,563 1333,686" fill="none" stroke="#f5ee0d" stroke-width="5" opacity="0.35" stroke-linecap="round" stroke-linejoin="round"/><polyline points="1412,0 1416,143 1417,259 1364,382 1340,463 1286,575 1332,683" fill="none" stroke="#f5ee0d" stroke-width="5" opacity="0.35" stroke-linecap="round" stroke-linejoin="round"/><polyline points="1096,0 1038,121 1098,209 1092,348 1105,452 1053,528 1008,599" fill="none" stroke="#f5ee0d" stroke-width="5" opacity="0.35" stroke-linecap="round" stroke-linejoin="round"/>
    <rect width="1600" height="1000" fill="url(#sky)"/><circle cx="394.4" cy="581.3" r="235.8" fill="#99ccff" opacity="0.058"/><circle cx="772.0" cy="309.0" r="110.7" fill="#99ccff" opacity="0.070"/><circle cx="1206.9" cy="250.1" r="179.2" fill="#99ccff" opacity="0.060"/><circle cx="1450.8" cy="280.3" r="137.0" fill="#99ccff" opacity="0.042"/><circle cx="943.6" cy="922.0" r="200.2" fill="#99ccff" opacity="0.040"/><circle cx="595.3" cy="76.5" r="114.1" fill="#99ccff" opacity="0.052"/><circle cx="245.4" cy="270.6" r="126.5" fill="#99ccff" opacity="0.050"/><circle cx="1369.2" cy="235.5" r="182.0" fill="#99ccff" opacity="0.049"/><circle cx="1405.0" cy="349.1" r="192.8" fill="#f5ee0d" opacity="0.049"/><circle cx="499.6" cy="768.3" r="133.5" fill="#f5ee0d" opacity="0.029"/><circle cx="557.3" cy="751.2" r="109.2" fill="#f5ee0d" opacity="0.041"/><circle cx="562.0" cy="169.0" r="145.9" fill="#f5ee0d" opacity="0.035"/><circle cx="736.6" cy="881.1" r="209.6" fill="#f5ee0d" opacity="0.031"/><circle cx="1580.6" cy="612.0" r="214.8" fill="#f5ee0d" opacity="0.045"/><rect x="0" y="760" width="1600" height="240" fill="#090d14" opacity="1"/><rect x="20" y="586" width="87" height="174" fill="#090d14" opacity="1"/><rect x="58" y="604" width="6" height="8" fill="#dff3ff" opacity="0.20"/><rect x="44" y="622" width="6" height="8" fill="#dff3ff" opacity="0.20"/><rect x="58" y="622" width="6" height="8" fill="#dff3ff" opacity="0.20"/><rect x="72" y="622" width="6" height="8" fill="#dff3ff" opacity="0.20"/><rect x="30" y="640" width="6" height="8" fill="#dff3ff" opacity="0.20"/><rect x="58" y="640" width="6" height="8" fill="#dff3ff" opacity="0.20"/><rect x="72" y="640" width="6" height="8" fill="#dff3ff" opacity="0.20"/><rect x="58" y="658" width="6" height="8" fill="#dff3ff" opacity="0.20"/><rect x="72" y="658" width="6" height="8" fill="#dff3ff" opacity="0.20"/><rect x="86" y="658" width="6" height="8" fill="#dff3ff" opacity="0.20"/><rect x="30" y="676" width="6" height="8" fill="#dff3ff" opacity="0.20"/><rect x="44" y="676" width="6" height="8" fill="#dff3ff" opacity="0.20"/><rect x="58" y="676" width="6" height="8" fill="#dff3ff" opacity="0.20"/><rect x="86" y="676" width="6" height="8" fill="#dff3ff" opacity="0.20"/><rect x="30" y="694" width="6" height="8" fill="#dff3ff" opacity="0.20"/><rect x="44" y="694" width="6" height="8" fill="#dff3ff" opacity="0.20"/><rect x="72" y="694" width="6" height="8" fill="#dff3ff" opacity="0.20"/><rect x="58" y="712" width="6" height="8" fill="#dff3ff" opacity="0.20"/><rect x="86" y="712" width="6" height="8" fill="#dff3ff" opacity="0.20"/><rect x="30" y="730" width="6" height="8" fill="#dff3ff" opacity="0.20"/><rect x="44" y="730" width="6" height="8" fill="#dff3ff" opacity="0.20"/><rect x="72" y="730" width="6" height="8" fill="#dff3ff" opacity="0.20"/><rect x="86" y="730" width="6" height="8" fill="#dff3ff" opacity="0.20"/><rect x="122" y="543" width="69" height="217" fill="#090d14" opacity="1"/><rect x="132" y="561" width="6" height="8" fill="#dff3ff" opacity="0.20"/><rect x="160" y="561" width="6" height="8" fill="#dff3ff" opacity="0.20"/><rect x="146" y="579" width="6" height="8" fill="#dff3ff" opacity="0.20"/><rect x="146" y="597" width="6" height="8" fill="#dff3ff" opacity="0.20"/><rect x="160" y="597" width="6" height="8" fill="#dff3ff" opacity="0.20"/><rect x="174" y="597" width="6" height="8" fill="#dff3ff" opacity="0.20"/><rect x="132" y="615" width="6" height="8" fill="#dff3ff" opacity="0.20"/><rect x="146" y="615" width="6" height="8" fill="#dff3ff" opacity="0.20"/><rect x="174" y="615" width="6" height="8" fill="#dff3ff" opacity="0.20"/><rect x="132" y="633" width="6" height="8" fill="#dff3ff" opacity="0.20"/><rect x="146" y="633" width="6" height="8" fill="#dff3ff" opacity="0.20"/><rect x="132" y="669" width="6" height="8" fill="#dff3ff" opacity="0.20"/><rect x="146" y="669" width="6" height="8" fill="#dff3ff" opacity="0.20"/><rect x="174" y="669" width="6" height="8" fill="#dff3ff" opacity="0.20"/><rect x="132" y="705" width="6" height="8" fill="#dff3ff" opacity="0.20"/><rect x="160" y="705" width="6" height="8" fill="#dff3ff" opacity="0.20"/><rect x="174" y="705" width="6" height="8" fill="#dff3ff" opacity="0.20"/><rect x="132" y="723" width="6" height="8" fill="#dff3ff" opacity="0.20"/><rect x="132" y="741" width="6" height="8" fill="#dff3ff" opacity="0.20"/><rect x="160" y="741" width="6" height="8" fill="#dff3ff" opacity="0.20"/><rect x="174" y="741" width="6" height="8" fill="#dff3ff" opacity="0.20"/><rect x="202" y="574" width="70" height="186" fill="#090d14" opacity="1"/><rect x="212" y="592" width="6" height="8" fill="#dff3ff" opacity="0.20"/><rect x="226" y="610" width="6" height="8" fill="#dff3ff" opacity="0.20"/><rect x="240" y="610" width="6" height="8" fill="#dff3ff" opacity="0.20"/><rect x="254" y="628" width="6" height="8" fill="#dff3ff" opacity="0.20"/><rect x="254" y="646" width="6" height="8" fill="#dff3ff" opacity="0.20"/><rect x="212" y="664" width="6" height="8" fill="#dff3ff" opacity="0.20"/><rect x="226" y="664" width="6" height="8" fill="#dff3ff" opacity="0.20"/><rect x="254" y="682" width="6" height="8" fill="#dff3ff" opacity="0.20"/><rect x="212" y="718" width="6" height="8" fill="#dff3ff" opacity="0.20"/><rect x="226" y="718" width="6" height="8" fill="#dff3ff" opacity="0.20"/><rect x="254" y="718" width="6" height="8" fill="#dff3ff" opacity="0.20"/><rect x="212" y="736" width="6" height="8" fill="#dff3ff" opacity="0.20"/><rect x="240" y="736" width="6" height="8" fill="#dff3ff" opacity="0.20"/><rect x="291" y="615" width="65" height="145" fill="#090d14" opacity="1"/><rect x="301" y="633" width="6" height="8" fill="#dff3ff" opacity="0.20"/><rect x="315" y="633" width="6" height="8" fill="#dff3ff" opacity="0.20"/><rect x="315" y="651" width="6" height="8" fill="#dff3ff" opacity="0.20"/><rect x="329" y="651" width="6" height="8" fill="#dff3ff" opacity="0.20"/><rect x="343" y="651" width="6" height="8" fill="#dff3ff" opacity="0.20"/><rect x="329" y="669" width="6" height="8" fill="#dff3ff" opacity="0.20"/><rect x="301" y="687" width="6" height="8" fill="#dff3ff" opacity="0.20"/><rect x="329" y="687" width="6" height="8" fill="#dff3ff" opacity="0.20"/><rect x="315" y="705" width="6" height="8" fill="#dff3ff" opacity="0.20"/><rect x="329" y="705" width="6" height="8" fill="#dff3ff" opacity="0.20"/><rect x="343" y="705" width="6" height="8" fill="#dff3ff" opacity="0.20"/><rect x="329" y="723" width="6" height="8" fill="#dff3ff" opacity="0.20"/><rect x="343" y="723" width="6" height="8" fill="#dff3ff" opacity="0.20"/><rect x="301" y="741" width="6" height="8" fill="#dff3ff" opacity="0.20"/><rect x="315" y="741" width="6" height="8" fill="#dff3ff" opacity="0.20"/><rect x="329" y="741" width="6" height="8" fill="#dff3ff" opacity="0.20"/><rect x="372" y="544" width="44" height="216" fill="#090d14" opacity="1"/><rect x="396" y="562" width="6" height="8" fill="#dff3ff" opacity="0.20"/><rect x="382" y="580" width="6" height="8" fill="#dff3ff" opacity="0.20"/><rect x="396" y="580" width="6" height="8" fill="#dff3ff" opacity="0.20"/><rect x="382" y="598" width="6" height="8" fill="#dff3ff" opacity="0.20"/><rect x="396" y="598" width="6" height="8" fill="#dff3ff" opacity="0.20"/><rect x="396" y="616" width="6" height="8" fill="#dff3ff" opacity="0.20"/><rect x="382" y="634" width="6" height="8" fill="#dff3ff" opacity="0.20"/><rect x="396" y="634" width="6" height="8" fill="#dff3ff" opacity="0.20"/><rect x="382" y="652" width="6" height="8" fill="#dff3ff" opacity="0.20"/><rect x="396" y="652" width="6" height="8" fill="#dff3ff" opacity="0.20"/><rect x="382" y="670" width="6" height="8" fill="#dff3ff" opacity="0.20"/><rect x="382" y="688" width="6" height="8" fill="#dff3ff" opacity="0.20"/><rect x="396" y="688" width="6" height="8" fill="#dff3ff" opacity="0.20"/><rect x="396" y="724" width="6" height="8" fill="#dff3ff" opacity="0.20"/><rect x="434" y="610" width="79" height="150" fill="#090d14" opacity="1"/><rect x="458" y="628" width="6" height="8" fill="#dff3ff" opacity="0.20"/><rect x="472" y="628" width="6" height="8" fill="#dff3ff" opacity="0.20"/><rect x="486" y="628" width="6" height="8" fill="#dff3ff" opacity="0.20"/><rect x="500" y="628" width="6" height="8" fill="#dff3ff" opacity="0.20"/><rect x="444" y="646" width="6" height="8" fill="#dff3ff" opacity="0.20"/><rect x="458" y="646" width="6" height="8" fill="#dff3ff" opacity="0.20"/><rect x="472" y="646" width="6" height="8" fill="#dff3ff" opacity="0.20"/><rect x="486" y="646" width="6" height="8" fill="#dff3ff" opacity="0.20"/><rect x="500" y="664" width="6" height="8" fill="#dff3ff" opacity="0.20"/><rect x="458" y="682" width="6" height="8" fill="#dff3ff" opacity="0.20"/><rect x="472" y="682" width="6" height="8" fill="#dff3ff" opacity="0.20"/><rect x="500" y="682" width="6" height="8" fill="#dff3ff" opacity="0.20"/><rect x="444" y="700" width="6" height="8" fill="#dff3ff" opacity="0.20"/><rect x="458" y="700" width="6" height="8" fill="#dff3ff" opacity="0.20"/><rect x="500" y="700" width="6" height="8" fill="#dff3ff" opacity="0.20"/><rect x="444" y="718" width="6" height="8" fill="#dff3ff" opacity="0.20"/><rect x="486" y="718" width="6" height="8" fill="#dff3ff" opacity="0.20"/><rect x="500" y="718" width="6" height="8" fill="#dff3ff" opacity="0.20"/><rect x="444" y="736" width="6" height="8" fill="#dff3ff" opacity="0.20"/><rect x="531" y="410" width="75" height="350" fill="#090d14" opacity="1"/><rect x="569" y="446" width="6" height="8" fill="#dff3ff" opacity="0.20"/><rect x="541" y="464" width="6" height="8" fill="#dff3ff" opacity="0.20"/><rect x="569" y="464" width="6" height="8" fill="#dff3ff" opacity="0.20"/><rect x="583" y="464" width="6" height="8" fill="#dff3ff" opacity="0.20"/><rect x="541" y="482" width="6" height="8" fill="#dff3ff" opacity="0.20"/><rect x="555" y="482" width="6" height="8" fill="#dff3ff" opacity="0.20"/><rect x="569" y="482" width="6" height="8" fill="#dff3ff" opacity="0.20"/><rect x="541" y="500" width="6" height="8" fill="#dff3ff" opacity="0.20"/><rect x="583" y="500" width="6" height="8" fill="#dff3ff" opacity="0.20"/><rect x="569" y="518" width="6" height="8" fill="#dff3ff" opacity="0.20"/><rect x="541" y="536" width="6" height="8" fill="#dff3ff" opacity="0.20"/><rect x="555" y="536" width="6" height="8" fill="#dff3ff" opacity="0.20"/><rect x="569" y="536" width="6" height="8" fill="#dff3ff" opacity="0.20"/><rect x="583" y="536" width="6" height="8" fill="#dff3ff" opacity="0.20"/><rect x="541" y="554" width="6" height="8" fill="#dff3ff" opacity="0.20"/><rect x="541" y="572" width="6" height="8" fill="#dff3ff" opacity="0.20"/><rect x="583" y="572" width="6" height="8" fill="#dff3ff" opacity="0.20"/><rect x="541" y="590" width="6" height="8" fill="#dff3ff" opacity="0.20"/><rect x="555" y="590" width="6" height="8" fill="#dff3ff" opacity="0.20"/><rect x="569" y="590" width="6" height="8" fill="#dff3ff" opacity="0.20"/><rect x="583" y="590" width="6" height="8" fill="#dff3ff" opacity="0.20"/><rect x="569" y="608" width="6" height="8" fill="#dff3ff" opacity="0.20"/><rect x="541" y="626" width="6" height="8" fill="#dff3ff" opacity="0.20"/><rect x="569" y="626" width="6" height="8" fill="#dff3ff" opacity="0.20"/><rect x="583" y="644" width="6" height="8" fill="#dff3ff" opacity="0.20"/><rect x="583" y="662" width="6" height="8" fill="#dff3ff" opacity="0.20"/><rect x="569" y="680" width="6" height="8" fill="#dff3ff" opacity="0.20"/><rect x="583" y="680" width="6" height="8" fill="#dff3ff" opacity="0.20"/><rect x="555" y="698" width="6" height="8" fill="#dff3ff" opacity="0.20"/><rect x="569" y="698" width="6" height="8" fill="#dff3ff" opacity="0.20"/><rect x="555" y="716" width="6" height="8" fill="#dff3ff" opacity="0.20"/><rect x="541" y="734" width="6" height="8" fill="#dff3ff" opacity="0.20"/><rect x="569" y="734" width="6" height="8" fill="#dff3ff" opacity="0.20"/><rect x="623" y="444" width="72" height="316" fill="#090d14" opacity="1"/><rect x="675" y="462" width="6" height="8" fill="#dff3ff" opacity="0.20"/><rect x="633" y="480" width="6" height="8" fill="#dff3ff" opacity="0.20"/><rect x="661" y="480" width="6" height="8" fill="#dff3ff" opacity="0.20"/><rect x="675" y="480" width="6" height="8" fill="#dff3ff" opacity="0.20"/><rect x="661" y="498" width="6" height="8" fill="#dff3ff" opacity="0.20"/><rect x="675" y="498" width="6" height="8" fill="#dff3ff" opacity="0.20"/><rect x="633" y="516" width="6" height="8" fill="#dff3ff" opacity="0.20"/><rect x="647" y="516" width="6" height="8" fill="#dff3ff" opacity="0.20"/><rect x="675" y="516" width="6" height="8" fill="#dff3ff" opacity="0.20"/><rect x="647" y="534" width="6" height="8" fill="#dff3ff" opacity="0.20"/><rect x="661" y="534" width="6" height="8" fill="#dff3ff" opacity="0.20"/><rect x="675" y="534" width="6" height="8" fill="#dff3ff" opacity="0.20"/><rect x="647" y="552" width="6" height="8" fill="#dff3ff" opacity="0.20"/><rect x="661" y="552" width="6" height="8" fill="#dff3ff" opacity="0.20"/><rect x="633" y="570" width="6" height="8" fill="#dff3ff" opacity="0.20"/><rect x="661" y="570" width="6" height="8" fill="#dff3ff" opacity="0.20"/><rect x="675" y="570" width="6" height="8" fill="#dff3ff" opacity="0.20"/><rect x="647" y="606" width="6" height="8" fill="#dff3ff" opacity="0.20"/><rect x="661" y="606" width="6" height="8" fill="#dff3ff" opacity="0.20"/><rect x="675" y="606" width="6" height="8" fill="#dff3ff" opacity="0.20"/><rect x="633" y="624" width="6" height="8" fill="#dff3ff" opacity="0.20"/><rect x="661" y="624" width="6" height="8" fill="#dff3ff" opacity="0.20"/><rect x="647" y="642" width="6" height="8" fill="#dff3ff" opacity="0.20"/><rect x="661" y="642" width="6" height="8" fill="#dff3ff" opacity="0.20"/><rect x="675" y="642" width="6" height="8" fill="#dff3ff" opacity="0.20"/><rect x="633" y="678" width="6" height="8" fill="#dff3ff" opacity="0.20"/><rect x="661" y="678" width="6" height="8" fill="#dff3ff" opacity="0.20"/><rect x="675" y="678" width="6" height="8" fill="#dff3ff" opacity="0.20"/><rect x="633" y="696" width="6" height="8" fill="#dff3ff" opacity="0.20"/><rect x="675" y="696" width="6" height="8" fill="#dff3ff" opacity="0.20"/><rect x="647" y="714" width="6" height="8" fill="#dff3ff" opacity="0.20"/><rect x="661" y="714" width="6" height="8" fill="#dff3ff" opacity="0.20"/><rect x="675" y="714" width="6" height="8" fill="#dff3ff" opacity="0.20"/><rect x="633" y="732" width="6" height="8" fill="#dff3ff" opacity="0.20"/><rect x="647" y="732" width="6" height="8" fill="#dff3ff" opacity="0.20"/><rect x="711" y="569" width="44" height="191" fill="#090d14" opacity="1"/><rect x="721" y="587" width="6" height="8" fill="#dff3ff" opacity="0.20"/><rect x="735" y="605" width="6" height="8" fill="#dff3ff" opacity="0.20"/><rect x="721" y="623" width="6" height="8" fill="#dff3ff" opacity="0.20"/><rect x="735" y="623" width="6" height="8" fill="#dff3ff" opacity="0.20"/><rect x="721" y="659" width="6" height="8" fill="#dff3ff" opacity="0.20"/><rect x="735" y="659" width="6" height="8" fill="#dff3ff" opacity="0.20"/><rect x="735" y="677" width="6" height="8" fill="#dff3ff" opacity="0.20"/><rect x="721" y="695" width="6" height="8" fill="#dff3ff" opacity="0.20"/><rect x="735" y="713" width="6" height="8" fill="#dff3ff" opacity="0.20"/><rect x="735" y="731" width="6" height="8" fill="#dff3ff" opacity="0.20"/><rect x="767" y="598" width="73" height="162" fill="#090d14" opacity="1"/><rect x="791" y="616" width="6" height="8" fill="#dff3ff" opacity="0.20"/><rect x="805" y="616" width="6" height="8" fill="#dff3ff" opacity="0.20"/><rect x="819" y="634" width="6" height="8" fill="#dff3ff" opacity="0.20"/><rect x="791" y="652" width="6" height="8" fill="#dff3ff" opacity="0.20"/><rect x="805" y="652" width="6" height="8" fill="#dff3ff" opacity="0.20"/><rect x="777" y="670" width="6" height="8" fill="#dff3ff" opacity="0.20"/><rect x="819" y="670" width="6" height="8" fill="#dff3ff" opacity="0.20"/><rect x="777" y="688" width="6" height="8" fill="#dff3ff" opacity="0.20"/><rect x="791" y="688" width="6" height="8" fill="#dff3ff" opacity="0.20"/><rect x="805" y="688" width="6" height="8" fill="#dff3ff" opacity="0.20"/><rect x="819" y="688" width="6" height="8" fill="#dff3ff" opacity="0.20"/><rect x="777" y="706" width="6" height="8" fill="#dff3ff" opacity="0.20"/><rect x="791" y="706" width="6" height="8" fill="#dff3ff" opacity="0.20"/><rect x="819" y="706" width="6" height="8" fill="#dff3ff" opacity="0.20"/><rect x="777" y="724" width="6" height="8" fill="#dff3ff" opacity="0.20"/><rect x="791" y="724" width="6" height="8" fill="#dff3ff" opacity="0.20"/><rect x="819" y="724" width="6" height="8" fill="#dff3ff" opacity="0.20"/><rect x="856" y="401" width="64" height="359" fill="#090d14" opacity="1"/><rect x="866" y="419" width="6" height="8" fill="#dff3ff" opacity="0.20"/><rect x="908" y="419" width="6" height="8" fill="#dff3ff" opacity="0.20"/><rect x="866" y="437" width="6" height="8" fill="#dff3ff" opacity="0.20"/><rect x="908" y="437" width="6" height="8" fill="#dff3ff" opacity="0.20"/><rect x="866" y="473" width="6" height="8" fill="#dff3ff" opacity="0.20"/><rect x="880" y="473" width="6" height="8" fill="#dff3ff" opacity="0.20"/><rect x="894" y="473" width="6" height="8" fill="#dff3ff" opacity="0.20"/><rect x="908" y="473" width="6" height="8" fill="#dff3ff" opacity="0.20"/><rect x="866" y="491" width="6" height="8" fill="#dff3ff" opacity="0.20"/><rect x="908" y="491" width="6" height="8" fill="#dff3ff" opacity="0.20"/><rect x="880" y="509" width="6" height="8" fill="#dff3ff" opacity="0.20"/><rect x="894" y="509" width="6" height="8" fill="#dff3ff" opacity="0.20"/><rect x="908" y="509" width="6" height="8" fill="#dff3ff" opacity="0.20"/><rect x="894" y="527" width="6" height="8" fill="#dff3ff" opacity="0.20"/><rect x="908" y="527" width="6" height="8" fill="#dff3ff" opacity="0.20"/><rect x="866" y="545" width="6" height="8" fill="#dff3ff" opacity="0.20"/><rect x="894" y="545" width="6" height="8" fill="#dff3ff" opacity="0.20"/><rect x="866" y="563" width="6" height="8" fill="#dff3ff" opacity="0.20"/><rect x="880" y="563" width="6" height="8" fill="#dff3ff" opacity="0.20"/><rect x="894" y="563" width="6" height="8" fill="#dff3ff" opacity="0.20"/><rect x="866" y="581" width="6" height="8" fill="#dff3ff" opacity="0.20"/><rect x="880" y="581" width="6" height="8" fill="#dff3ff" opacity="0.20"/><rect x="866" y="599" width="6" height="8" fill="#dff3ff" opacity="0.20"/><rect x="894" y="599" width="6" height="8" fill="#dff3ff" opacity="0.20"/><rect x="866" y="617" width="6" height="8" fill="#dff3ff" opacity="0.20"/><rect x="894" y="617" width="6" height="8" fill="#dff3ff" opacity="0.20"/><rect x="880" y="635" width="6" height="8" fill="#dff3ff" opacity="0.20"/><rect x="894" y="635" width="6" height="8" fill="#dff3ff" opacity="0.20"/><rect x="866" y="671" width="6" height="8" fill="#dff3ff" opacity="0.20"/><rect x="880" y="671" width="6" height="8" fill="#dff3ff" opacity="0.20"/><rect x="894" y="671" width="6" height="8" fill="#dff3ff" opacity="0.20"/><rect x="908" y="671" width="6" height="8" fill="#dff3ff" opacity="0.20"/><rect x="866" y="689" width="6" height="8" fill="#dff3ff" opacity="0.20"/><rect x="880" y="689" width="6" height="8" fill="#dff3ff" opacity="0.20"/><rect x="894" y="689" width="6" height="8" fill="#dff3ff" opacity="0.20"/><rect x="880" y="707" width="6" height="8" fill="#dff3ff" opacity="0.20"/><rect x="908" y="707" width="6" height="8" fill="#dff3ff" opacity="0.20"/><rect x="935" y="616" width="52" height="144" fill="#090d14" opacity="1"/><rect x="959" y="634" width="6" height="8" fill="#dff3ff" opacity="0.20"/><rect x="945" y="652" width="6" height="8" fill="#dff3ff" opacity="0.20"/><rect x="959" y="652" width="6" height="8" fill="#dff3ff" opacity="0.20"/><rect x="945" y="688" width="6" height="8" fill="#dff3ff" opacity="0.20"/><rect x="959" y="688" width="6" height="8" fill="#dff3ff" opacity="0.20"/><rect x="973" y="688" width="6" height="8" fill="#dff3ff" opacity="0.20"/><rect x="945" y="706" width="6" height="8" fill="#dff3ff" opacity="0.20"/><rect x="973" y="706" width="6" height="8" fill="#dff3ff" opacity="0.20"/><rect x="973" y="724" width="6" height="8" fill="#dff3ff" opacity="0.20"/><rect x="1004" y="381" width="61" height="379" fill="#090d14" opacity="1"/><rect x="1028" y="399" width="6" height="8" fill="#dff3ff" opacity="0.20"/><rect x="1042" y="435" width="6" height="8" fill="#dff3ff" opacity="0.20"/><rect x="1028" y="453" width="6" height="8" fill="#dff3ff" opacity="0.20"/><rect x="1042" y="453" width="6" height="8" fill="#dff3ff" opacity="0.20"/><rect x="1028" y="471" width="6" height="8" fill="#dff3ff" opacity="0.20"/><rect x="1028" y="489" width="6" height="8" fill="#dff3ff" opacity="0.20"/><rect x="1042" y="489" width="6" height="8" fill="#dff3ff" opacity="0.20"/><rect x="1014" y="525" width="6" height="8" fill="#dff3ff" opacity="0.20"/><rect x="1028" y="525" width="6" height="8" fill="#dff3ff" opacity="0.20"/><rect x="1014" y="543" width="6" height="8" fill="#dff3ff" opacity="0.20"/><rect x="1028" y="543" width="6" height="8" fill="#dff3ff" opacity="0.20"/><rect x="1042" y="543" width="6" height="8" fill="#dff3ff" opacity="0.20"/><rect x="1028" y="561" width="6" height="8" fill="#dff3ff" opacity="0.20"/><rect x="1042" y="561" width="6" height="8" fill="#dff3ff" opacity="0.20"/><rect x="1028" y="579" width="6" height="8" fill="#dff3ff" opacity="0.20"/><rect x="1028" y="597" width="6" height="8" fill="#dff3ff" opacity="0.20"/><rect x="1014" y="633" width="6" height="8" fill="#dff3ff" opacity="0.20"/><rect x="1028" y="633" width="6" height="8" fill="#dff3ff" opacity="0.20"/><rect x="1028" y="651" width="6" height="8" fill="#dff3ff" opacity="0.20"/><rect x="1042" y="651" width="6" height="8" fill="#dff3ff" opacity="0.20"/><rect x="1014" y="669" width="6" height="8" fill="#dff3ff" opacity="0.20"/><rect x="1028" y="669" width="6" height="8" fill="#dff3ff" opacity="0.20"/><rect x="1014" y="687" width="6" height="8" fill="#dff3ff" opacity="0.20"/><rect x="1042" y="687" width="6" height="8" fill="#dff3ff" opacity="0.20"/><rect x="1014" y="705" width="6" height="8" fill="#dff3ff" opacity="0.20"/><rect x="1042" y="705" width="6" height="8" fill="#dff3ff" opacity="0.20"/><rect x="1014" y="723" width="6" height="8" fill="#dff3ff" opacity="0.20"/><rect x="1028" y="741" width="6" height="8" fill="#dff3ff" opacity="0.20"/><rect x="1042" y="741" width="6" height="8" fill="#dff3ff" opacity="0.20"/><rect x="1075" y="501" width="75" height="259" fill="#090d14" opacity="1"/><rect x="1085" y="519" width="6" height="8" fill="#dff3ff" opacity="0.20"/><rect x="1113" y="519" width="6" height="8" fill="#dff3ff" opacity="0.20"/><rect x="1099" y="555" width="6" height="8" fill="#dff3ff" opacity="0.20"/><rect x="1113" y="555" width="6" height="8" fill="#dff3ff" opacity="0.20"/><rect x="1127" y="555" width="6" height="8" fill="#dff3ff" opacity="0.20"/><rect x="1085" y="573" width="6" height="8" fill="#dff3ff" opacity="0.20"/><rect x="1113" y="573" width="6" height="8" fill="#dff3ff" opacity="0.20"/><rect x="1127" y="573" width="6" height="8" fill="#dff3ff" opacity="0.20"/><rect x="1085" y="591" width="6" height="8" fill="#dff3ff" opacity="0.20"/><rect x="1113" y="609" width="6" height="8" fill="#dff3ff" opacity="0.20"/><rect x="1127" y="609" width="6" height="8" fill="#dff3ff" opacity="0.20"/><rect x="1127" y="627" width="6" height="8" fill="#dff3ff" opacity="0.20"/><rect x="1099" y="663" width="6" height="8" fill="#dff3ff" opacity="0.20"/><rect x="1099" y="681" width="6" height="8" fill="#dff3ff" opacity="0.20"/><rect x="1113" y="681" width="6" height="8" fill="#dff3ff" opacity="0.20"/><rect x="1113" y="699" width="6" height="8" fill="#dff3ff" opacity="0.20"/><rect x="1127" y="699" width="6" height="8" fill="#dff3ff" opacity="0.20"/><rect x="1085" y="717" width="6" height="8" fill="#dff3ff" opacity="0.20"/><rect x="1113" y="717" width="6" height="8" fill="#dff3ff" opacity="0.20"/><rect x="1113" y="735" width="6" height="8" fill="#dff3ff" opacity="0.20"/><rect x="1174" y="549" width="85" height="211" fill="#090d14" opacity="1"/><rect x="1184" y="567" width="6" height="8" fill="#dff3ff" opacity="0.20"/><rect x="1198" y="567" width="6" height="8" fill="#dff3ff" opacity="0.20"/><rect x="1212" y="567" width="6" height="8" fill="#dff3ff" opacity="0.20"/><rect x="1240" y="567" width="6" height="8" fill="#dff3ff" opacity="0.20"/><rect x="1226" y="585" width="6" height="8" fill="#dff3ff" opacity="0.20"/><rect x="1198" y="621" width="6" height="8" fill="#dff3ff" opacity="0.20"/><rect x="1212" y="621" width="6" height="8" fill="#dff3ff" opacity="0.20"/><rect x="1226" y="621" width="6" height="8" fill="#dff3ff" opacity="0.20"/><rect x="1240" y="621" width="6" height="8" fill="#dff3ff" opacity="0.20"/><rect x="1240" y="639" width="6" height="8" fill="#dff3ff" opacity="0.20"/><rect x="1198" y="657" width="6" height="8" fill="#dff3ff" opacity="0.20"/><rect x="1240" y="657" width="6" height="8" fill="#dff3ff" opacity="0.20"/><rect x="1198" y="675" width="6" height="8" fill="#dff3ff" opacity="0.20"/><rect x="1212" y="675" width="6" height="8" fill="#dff3ff" opacity="0.20"/><rect x="1226" y="675" width="6" height="8" fill="#dff3ff" opacity="0.20"/><rect x="1212" y="693" width="6" height="8" fill="#dff3ff" opacity="0.20"/><rect x="1226" y="693" width="6" height="8" fill="#dff3ff" opacity="0.20"/><rect x="1198" y="711" width="6" height="8" fill="#dff3ff" opacity="0.20"/><rect x="1212" y="711" width="6" height="8" fill="#dff3ff" opacity="0.20"/><rect x="1240" y="711" width="6" height="8" fill="#dff3ff" opacity="0.20"/><rect x="1198" y="729" width="6" height="8" fill="#dff3ff" opacity="0.20"/><rect x="1272" y="602" width="64" height="158" fill="#090d14" opacity="1"/><rect x="1296" y="620" width="6" height="8" fill="#dff3ff" opacity="0.20"/><rect x="1324" y="620" width="6" height="8" fill="#dff3ff" opacity="0.20"/><rect x="1296" y="638" width="6" height="8" fill="#dff3ff" opacity="0.20"/><rect x="1324" y="638" width="6" height="8" fill="#dff3ff" opacity="0.20"/><rect x="1310" y="656" width="6" height="8" fill="#dff3ff" opacity="0.20"/><rect x="1324" y="656" width="6" height="8" fill="#dff3ff" opacity="0.20"/><rect x="1310" y="674" width="6" height="8" fill="#dff3ff" opacity="0.20"/><rect x="1310" y="692" width="6" height="8" fill="#dff3ff" opacity="0.20"/><rect x="1324" y="692" width="6" height="8" fill="#dff3ff" opacity="0.20"/><rect x="1296" y="728" width="6" height="8" fill="#dff3ff" opacity="0.20"/><rect x="1324" y="728" width="6" height="8" fill="#dff3ff" opacity="0.20"/><rect x="1359" y="622" width="50" height="138" fill="#090d14" opacity="1"/><rect x="1383" y="640" width="6" height="8" fill="#dff3ff" opacity="0.20"/><rect x="1397" y="640" width="6" height="8" fill="#dff3ff" opacity="0.20"/><rect x="1383" y="658" width="6" height="8" fill="#dff3ff" opacity="0.20"/><rect x="1397" y="658" width="6" height="8" fill="#dff3ff" opacity="0.20"/><rect x="1369" y="676" width="6" height="8" fill="#dff3ff" opacity="0.20"/><rect x="1383" y="694" width="6" height="8" fill="#dff3ff" opacity="0.20"/><rect x="1397" y="694" width="6" height="8" fill="#dff3ff" opacity="0.20"/><rect x="1369" y="712" width="6" height="8" fill="#dff3ff" opacity="0.20"/><rect x="1397" y="712" width="6" height="8" fill="#dff3ff" opacity="0.20"/><rect x="1369" y="730" width="6" height="8" fill="#dff3ff" opacity="0.20"/><rect x="1383" y="730" width="6" height="8" fill="#dff3ff" opacity="0.20"/><rect x="1397" y="730" width="6" height="8" fill="#dff3ff" opacity="0.20"/><rect x="1424" y="554" width="41" height="206" fill="#090d14" opacity="1"/><rect x="1434" y="608" width="6" height="8" fill="#dff3ff" opacity="0.20"/><rect x="1448" y="626" width="6" height="8" fill="#dff3ff" opacity="0.20"/><rect x="1448" y="644" width="6" height="8" fill="#dff3ff" opacity="0.20"/><rect x="1434" y="662" width="6" height="8" fill="#dff3ff" opacity="0.20"/><rect x="1448" y="662" width="6" height="8" fill="#dff3ff" opacity="0.20"/><rect x="1448" y="680" width="6" height="8" fill="#dff3ff" opacity="0.20"/><rect x="1448" y="698" width="6" height="8" fill="#dff3ff" opacity="0.20"/><rect x="1448" y="716" width="6" height="8" fill="#dff3ff" opacity="0.20"/><rect x="1489" y="612" width="81" height="148" fill="#090d14" opacity="1"/><rect x="1527" y="630" width="6" height="8" fill="#dff3ff" opacity="0.20"/><rect x="1541" y="630" width="6" height="8" fill="#dff3ff" opacity="0.20"/><rect x="1513" y="648" width="6" height="8" fill="#dff3ff" opacity="0.20"/><rect x="1499" y="666" width="6" height="8" fill="#dff3ff" opacity="0.20"/><rect x="1513" y="666" width="6" height="8" fill="#dff3ff" opacity="0.20"/><rect x="1527" y="666" width="6" height="8" fill="#dff3ff" opacity="0.20"/><rect x="1541" y="666" width="6" height="8" fill="#dff3ff" opacity="0.20"/><rect x="1555" y="666" width="6" height="8" fill="#dff3ff" opacity="0.20"/><rect x="1541" y="684" width="6" height="8" fill="#dff3ff" opacity="0.20"/><rect x="1499" y="702" width="6" height="8" fill="#dff3ff" opacity="0.20"/><rect x="1555" y="702" width="6" height="8" fill="#dff3ff" opacity="0.20"/><rect x="1513" y="720" width="6" height="8" fill="#dff3ff" opacity="0.20"/><rect x="1527" y="720" width="6" height="8" fill="#dff3ff" opacity="0.20"/><rect x="1555" y="720" width="6" height="8" fill="#dff3ff" opacity="0.20"/><rect x="1499" y="738" width="6" height="8" fill="#dff3ff" opacity="0.20"/><rect x="1527" y="738" width="6" height="8" fill="#dff3ff" opacity="0.20"/><rect x="1541" y="738" width="6" height="8" fill="#dff3ff" opacity="0.20"/><rect x="1555" y="738" width="6" height="8" fill="#dff3ff" opacity="0.20"/><path d="M 0 880 Q 420 760 800 810 Q 1180 860 1600 760" stroke="#99ccff" stroke-width="3" opacity=".15" fill="none"/><path d="M 0 920 Q 500 820 900 870 Q 1220 910 1600 830" stroke="#f5ee0d" stroke-width="2" opacity=".12" fill="none"/>
    
    </svg>