<svg xmlns="http://www.w3.org/2000/svg" viewBox="0 0 1600 1000" preserveAspectRatio="xMidYMid slice">
    <defs><linearGradient id="sky" x1="0" y1="0" x2="0" y2="1"><stop offset="0%" stop-color="#87d7ff"/><stop offset="58%" stop-color="#7888ff"/><stop offset="100%" stop-color="#090a10"/></linearGradient></defs>
    <rect width="1600" height="1000" fill="url(#sky)"/><circle cx="401.0" cy="253.0" r="59.6" fill="#ffffff" opacity="0.12"/><circle cx="456.0" cy="239.3" r="77.9" fill="#ffffff" opacity="0.12"/><circle cx="515.6" cy="257.6" r="55.0" fill="#ffffff" opacity="0.12"/><circle cx="465.2" cy="273.6" r="80.2" fill="#ffffff" opacity="0.12"/><circle cx="17.5" cy="195.0" r="53.6" fill="#ffffff" opacity="0.12"/><circle cx="67.0" cy="182.6" r="70.1" fill="#ffffff" opacity="0.12"/><circle cx="120.6" cy="199.1" r="49.5" fill="#ffffff" opacity="0.12"/><circle cx="75.2" cy="213.6" r="72.2" fill="#ffffff" opacity="0.12"/><circle cx="10.6" cy="287.0" r="40.5" fill="#ffffff" opacity="0.12"/><circle cx="48.0" cy="277.7" r="52.9" fill="#ffffff" opacity="0.12"/><circle cx="88.5" cy="290.1" r="37.4" fill="#ffffff" opacity="0.12"/><circle cx="54.2" cy="301.0" r="54.5" fill="#ffffff" opacity="0.12"/><circle cx="408.7" cy="100.0" r="78.3" fill="#ffffff" opacity="0.12"/><circle cx="481.0" cy="81.9" r="102.4" fill="#ffffff" opacity="0.12"/><circle cx="559.3" cy="106.0" r="72.3" fill="#ffffff" opacity="0.12"/><circle cx="493.1" cy="127.1" r="105.4" fill="#ffffff" opacity="0.12"/><circle cx="1351.8" cy="58.0" r="76.0" fill="#ffffff" opacity="0.12"/><circle cx="1422.0" cy="40.5" r="99.4" fill="#ffffff" opacity="0.12"/><circle cx="1498.0" cy="63.8" r="70.2" fill="#ffffff" opacity="0.12"/><circle cx="1433.7" cy="84.3" r="102.4" fill="#ffffff" opacity="0.12"/><circle cx="-11.0" cy="109.0" r="50.9" fill="#ffffff" opacity="0.12"/><circle cx="36.0" cy="97.3" r="66.6" fill="#ffffff" opacity="0.12"/><circle cx="86.9" cy="112.9" r="47.0" fill="#ffffff" opacity="0.12"/><circle cx="43.8" cy="126.6" r="68.5" fill="#ffffff" opacity="0.12"/><circle cx="1364.2" cy="118.0" r="48.5" fill="#ffffff" opacity="0.12"/><circle cx="1409.0" cy="106.8" r="63.4" fill="#ffffff" opacity="0.12"/><circle cx="1457.5" cy="121.7" r="44.8" fill="#ffffff" opacity="0.12"/><circle cx="1416.5" cy="134.8" r="65.3" fill="#ffffff" opacity="0.12"/><circle cx="1417.3" cy="259.0" r="43.0" fill="#ffffff" opacity="0.12"/><circle cx="1457.0" cy="249.1" r="56.3" fill="#ffffff" opacity="0.12"/><circle cx="1500.0" cy="262.3" r="39.7" fill="#ffffff" opacity="0.12"/><circle cx="1463.6" cy="273.9" r="57.9" fill="#ffffff" opacity="0.12"/><circle cx="672.2" cy="113.0" r="68.1" fill="#ffffff" opacity="0.12"/><circle cx="735.0" cy="97.3" r="89.0" fill="#ffffff" opacity="0.12"/><circle cx="803.1" cy="118.2" r="62.8" fill="#ffffff" opacity="0.12"/><circle cx="745.5" cy="136.6" r="91.7" fill="#ffffff" opacity="0.12"/><circle cx="-83.8" cy="128.0" r="52.9" fill="#ffffff" opacity="0.12"/><circle cx="-35.0" cy="115.8" r="69.2" fill="#ffffff" opacity="0.12"/><circle cx="17.9" cy="132.1" r="48.8" fill="#ffffff" opacity="0.12"/><circle cx="-26.9" cy="146.3" r="71.2" fill="#ffffff" opacity="0.12"/><circle cx="589.6" cy="203.0" r="43.8" fill="#ffffff" opacity="0.12"/><circle cx="630.0" cy="192.9" r="57.3" fill="#ffffff" opacity="0.12"/><circle cx="673.8" cy="206.4" r="40.4" fill="#ffffff" opacity="0.12"/><circle cx="636.7" cy="218.2" r="59.0" fill="#ffffff" opacity="0.12"/><circle cx="18.3" cy="50.0" r="70.1" fill="#ffffff" opacity="0.12"/><circle cx="83.0" cy="33.8" r="91.7" fill="#ffffff" opacity="0.12"/><circle cx="153.1" cy="55.4" r="64.7" fill="#ffffff" opacity="0.12"/><circle cx="93.8" cy="74.3" r="94.4" fill="#ffffff" opacity="0.12"/><circle cx="486.2" cy="238.0" r="68.0" fill="#ffffff" opacity="0.12"/><circle cx="549.0" cy="222.3" r="89.0" fill="#ffffff" opacity="0.12"/><circle cx="617.0" cy="243.2" r="62.8" fill="#ffffff" opacity="0.12"/><circle cx="559.5" cy="261.6" r="91.6" fill="#ffffff" opacity="0.12"/><circle cx="1368.1" cy="170.0" r="63.8" fill="#ffffff" opacity="0.12"/><circle cx="1427.0" cy="155.3" r="83.4" fill="#ffffff" opacity="0.12"/><circle cx="1490.8" cy="174.9" r="58.9" fill="#ffffff" opacity="0.12"/><circle cx="1436.8" cy="192.1" r="85.9" fill="#ffffff" opacity="0.12"/><circle cx="622.1" cy="325.0" r="62.7" fill="#ffffff" opacity="0.08"/><circle cx="680.0" cy="310.5" r="82.0" fill="#ffffff" opacity="0.08"/><circle cx="742.7" cy="329.8" r="57.9" fill="#ffffff" opacity="0.08"/><circle cx="689.6" cy="346.7" r="84.4" fill="#ffffff" opacity="0.08"/><circle cx="150.0" cy="470.0" r="97.5" fill="#ffffff" opacity="0.08"/><circle cx="240.0" cy="447.5" r="127.5" fill="#ffffff" opacity="0.08"/><circle cx="337.5" cy="477.5" r="90.0" fill="#ffffff" opacity="0.08"/><circle cx="255.0" cy="503.8" r="131.3" fill="#ffffff" opacity="0.08"/><circle cx="1003.5" cy="469.0" r="86.1" fill="#ffffff" opacity="0.08"/><circle cx="1083.0" cy="449.1" r="112.6" fill="#ffffff" opacity="0.08"/><circle cx="1169.1" cy="475.6" r="79.5" fill="#ffffff" opacity="0.08"/><circle cx="1096.3" cy="498.8" r="115.9" fill="#ffffff" opacity="0.08"/><circle cx="966.9" cy="310.0" r="70.5" fill="#ffffff" opacity="0.08"/><circle cx="1032.0" cy="293.7" r="92.2" fill="#ffffff" opacity="0.08"/><circle cx="1102.5" cy="315.4" r="65.1" fill="#ffffff" opacity="0.08"/><circle cx="1042.8" cy="334.4" r="94.9" fill="#ffffff" opacity="0.08"/><circle cx="1323.8" cy="435.0" r="80.3" fill="#ffffff" opacity="0.08"/><circle cx="1398.0" cy="416.5" r="105.1" fill="#ffffff" opacity="0.08"/><circle cx="1478.3" cy="441.2" r="74.2" fill="#ffffff" opacity="0.08"/><circle cx="1410.4" cy="462.8" r="108.1" fill="#ffffff" opacity="0.08"/><circle cx="1420.8" cy="303.0" r="84.7" fill="#ffffff" opacity="0.08"/><circle cx="1499.0" cy="283.5" r="110.7" fill="#ffffff" opacity="0.08"/><circle cx="1583.7" cy="309.5" r="78.2" fill="#ffffff" opacity="0.08"/><circle cx="1512.0" cy="332.3" r="114.0" fill="#ffffff" opacity="0.08"/><circle cx="-154.7" cy="352.0" r="99.3" fill="#ffffff" opacity="0.08"/><circle cx="-63.0" cy="329.1" r="129.9" fill="#ffffff" opacity="0.08"/><circle cx="36.3" cy="359.6" r="91.7" fill="#ffffff" opacity="0.08"/><circle cx="-47.7" cy="386.4" r="133.7" fill="#ffffff" opacity="0.08"/><circle cx="144.0" cy="425.0" r="67.2" fill="#ffffff" opacity="0.08"/><circle cx="206.0" cy="409.5" r="87.9" fill="#ffffff" opacity="0.08"/><circle cx="273.2" cy="430.2" r="62.0" fill="#ffffff" opacity="0.08"/><circle cx="216.3" cy="448.3" r="90.5" fill="#ffffff" opacity="0.08"/><circle cx="347.4" cy="407.0" r="86.2" fill="#ffffff" opacity="0.08"/><circle cx="427.0" cy="387.1" r="112.7" fill="#ffffff" opacity="0.08"/><circle cx="513.2" cy="413.6" r="79.6" fill="#ffffff" opacity="0.08"/><circle cx="440.3" cy="436.8" r="116.0" fill="#ffffff" opacity="0.08"/><circle cx="1042.3" cy="255.0" r="57.1" fill="#ffffff" opacity="0.08"/><circle cx="1095.0" cy="241.8" r="74.6" fill="#ffffff" opacity="0.08"/><circle cx="1152.1" cy="259.4" r="52.7" fill="#ffffff" opacity="0.08"/><circle cx="1103.8" cy="274.8" r="76.8" fill="#ffffff" opacity="0.08"/><path d="M 0 860 Q 230 780 460 860 Q 710 740 960 860 Q 1260 770 1600 860 L 1600 1000 L 0 1000 Z" fill="#0a1019" opacity="0.84"/>
    </svg>